<mxfile host="app.diagrams.net" agent="Mozilla/5.0 (Windows NT 10.0; Win64; x64) AppleWebKit/537.36 (KHTML, like Gecko) Chrome/136.0.0.0 Safari/537.36" version="27.1.1">
  <diagram name="Page-1" id="heQa1cgiO2c3hlIc1mcb">
    <mxGraphModel dx="3726" dy="2256" grid="1" gridSize="10" guides="1" tooltips="1" connect="1" arrows="1" fold="1" page="1" pageScale="1" pageWidth="827" pageHeight="1169" math="0" shadow="0">
      <root>
        <mxCell id="0" />
        <mxCell id="1" parent="0" />
        <mxCell id="20LNLVl6zcm7CszeMAKS-103" value="Ruda Miedzi" style="shape=process" vertex="1" parent="1">
          <mxGeometry x="-830" y="-740" width="160" height="60" as="geometry" />
        </mxCell>
        <mxCell id="20LNLVl6zcm7CszeMAKS-104" value="Ruda Cyny" style="shape=process" vertex="1" parent="1">
          <mxGeometry x="-830" y="-600" width="160" height="60" as="geometry" />
        </mxCell>
        <mxCell id="20LNLVl6zcm7CszeMAKS-105" value="Ruda Srebra" style="shape=process" vertex="1" parent="1">
          <mxGeometry x="-830" y="-460" width="160" height="60" as="geometry" />
        </mxCell>
        <mxCell id="20LNLVl6zcm7CszeMAKS-106" value="Ruda Platyny" style="shape=process" vertex="1" parent="1">
          <mxGeometry x="-830" y="-320" width="160" height="60" as="geometry" />
        </mxCell>
        <mxCell id="20LNLVl6zcm7CszeMAKS-107" value="Ruda Osmu" style="shape=process" vertex="1" parent="1">
          <mxGeometry x="-830" y="-180" width="160" height="60" as="geometry" />
        </mxCell>
        <mxCell id="20LNLVl6zcm7CszeMAKS-108" value="Pył Redstone" style="shape=process" vertex="1" parent="1">
          <mxGeometry x="254" y="-100" width="160" height="60" as="geometry" />
        </mxCell>
        <mxCell id="20LNLVl6zcm7CszeMAKS-109" value="Proszek Glowstone" style="shape=process" vertex="1" parent="1">
          <mxGeometry x="254" width="160" height="60" as="geometry" />
        </mxCell>
        <mxCell id="20LNLVl6zcm7CszeMAKS-110" value="Kwarc Netherowy" style="shape=process" vertex="1" parent="1">
          <mxGeometry x="254" y="100" width="160" height="60" as="geometry" />
        </mxCell>
        <mxCell id="20LNLVl6zcm7CszeMAKS-111" value="Obsidian" style="shape=process" vertex="1" parent="1">
          <mxGeometry x="254" y="200" width="160" height="60" as="geometry" />
        </mxCell>
        <mxCell id="20LNLVl6zcm7CszeMAKS-112" value="Sztabka Miedzi" style="shape=process" vertex="1" parent="1">
          <mxGeometry x="-250" y="-740" width="160" height="60" as="geometry" />
        </mxCell>
        <mxCell id="20LNLVl6zcm7CszeMAKS-113" value="Sztabka Cyny" style="shape=process" vertex="1" parent="1">
          <mxGeometry x="-250" y="-600" width="160" height="60" as="geometry" />
        </mxCell>
        <mxCell id="20LNLVl6zcm7CszeMAKS-114" value="Sztabka Srebra" style="shape=process" vertex="1" parent="1">
          <mxGeometry x="-250" y="-460" width="160" height="60" as="geometry" />
        </mxCell>
        <mxCell id="20LNLVl6zcm7CszeMAKS-115" value="Sztabka Platyny" style="shape=process" vertex="1" parent="1">
          <mxGeometry x="-260" y="-320" width="160" height="60" as="geometry" />
        </mxCell>
        <mxCell id="20LNLVl6zcm7CszeMAKS-116" value="Sztabka Osmu" style="shape=process" vertex="1" parent="1">
          <mxGeometry x="-260" y="-180" width="160" height="60" as="geometry" />
        </mxCell>
        <mxCell id="20LNLVl6zcm7CszeMAKS-117" value="Sztabka Stali" style="shape=process" vertex="1" parent="1">
          <mxGeometry x="-260" y="-60" width="160" height="60" as="geometry" />
        </mxCell>
        <mxCell id="20LNLVl6zcm7CszeMAKS-118" value="Sztabka Adamantytu" style="shape=process" vertex="1" parent="1">
          <mxGeometry x="-250" y="270" width="160" height="60" as="geometry" />
        </mxCell>
        <mxCell id="20LNLVl6zcm7CszeMAKS-119" value="Sztabka Orichalcumu" style="shape=process" vertex="1" parent="1">
          <mxGeometry x="-260" y="50" width="160" height="60" as="geometry" />
        </mxCell>
        <mxCell id="20LNLVl6zcm7CszeMAKS-120" value="Sztabka Uranowa" style="shape=process" vertex="1" parent="1">
          <mxGeometry x="-260" y="160" width="160" height="60" as="geometry" />
        </mxCell>
        <mxCell id="20LNLVl6zcm7CszeMAKS-121" value="Miedziany Przewód" style="shape=process" vertex="1" parent="1">
          <mxGeometry x="-20" y="-950" width="160" height="60" as="geometry" />
        </mxCell>
        <mxCell id="20LNLVl6zcm7CszeMAKS-122" value="Płytka Drukowana (PCB)" style="shape=process" vertex="1" parent="1">
          <mxGeometry x="-20" y="-790" width="160" height="60" as="geometry" />
        </mxCell>
        <mxCell id="20LNLVl6zcm7CszeMAKS-123" value="Cewka Miedziana" style="shape=process" vertex="1" parent="1">
          <mxGeometry x="-20" y="-870" width="160" height="60" as="geometry" />
        </mxCell>
        <mxCell id="20LNLVl6zcm7CszeMAKS-124" value="Rezystor" style="shape=process" vertex="1" parent="1">
          <mxGeometry x="220" y="-790" width="160" height="60" as="geometry" />
        </mxCell>
        <mxCell id="20LNLVl6zcm7CszeMAKS-125" value="Kondensator" style="shape=process" vertex="1" parent="1">
          <mxGeometry x="190" y="-600" width="160" height="60" as="geometry" />
        </mxCell>
        <mxCell id="20LNLVl6zcm7CszeMAKS-126" value="Obudowa Elektroniczna" style="shape=process" vertex="1" parent="1">
          <mxGeometry x="-40" y="-90" width="160" height="60" as="geometry" />
        </mxCell>
        <mxCell id="20LNLVl6zcm7CszeMAKS-127" value="Mikrokontroler" style="shape=process" vertex="1" parent="1">
          <mxGeometry x="470" y="-790" width="160" height="60" as="geometry" />
        </mxCell>
        <mxCell id="20LNLVl6zcm7CszeMAKS-128" value="Procesor" style="shape=process" vertex="1" parent="1">
          <mxGeometry x="220" y="-870" width="160" height="60" as="geometry" />
        </mxCell>
        <mxCell id="20LNLVl6zcm7CszeMAKS-129" value="Przekaźnik Energetyczny" style="shape=process" vertex="1" parent="1">
          <mxGeometry x="220" y="-950" width="160" height="60" as="geometry" />
        </mxCell>
        <mxCell id="20LNLVl6zcm7CszeMAKS-130" value="Płyta Główna" style="shape=process" vertex="1" parent="1">
          <mxGeometry x="480" y="-870" width="160" height="60" as="geometry" />
        </mxCell>
        <mxCell id="20LNLVl6zcm7CszeMAKS-131" style="endArrow=block" edge="1" parent="1" source="20LNLVl6zcm7CszeMAKS-103" target="20LNLVl6zcm7CszeMAKS-112">
          <mxGeometry relative="1" as="geometry" />
        </mxCell>
        <mxCell id="20LNLVl6zcm7CszeMAKS-132" style="endArrow=block" edge="1" parent="1" source="20LNLVl6zcm7CszeMAKS-104" target="20LNLVl6zcm7CszeMAKS-113">
          <mxGeometry relative="1" as="geometry" />
        </mxCell>
        <mxCell id="20LNLVl6zcm7CszeMAKS-133" style="endArrow=block" edge="1" parent="1" source="20LNLVl6zcm7CszeMAKS-105" target="20LNLVl6zcm7CszeMAKS-114">
          <mxGeometry relative="1" as="geometry" />
        </mxCell>
        <mxCell id="20LNLVl6zcm7CszeMAKS-134" style="endArrow=block" edge="1" parent="1" source="20LNLVl6zcm7CszeMAKS-106" target="20LNLVl6zcm7CszeMAKS-115">
          <mxGeometry relative="1" as="geometry" />
        </mxCell>
        <mxCell id="20LNLVl6zcm7CszeMAKS-135" style="endArrow=block" edge="1" parent="1" source="20LNLVl6zcm7CszeMAKS-107" target="20LNLVl6zcm7CszeMAKS-116">
          <mxGeometry relative="1" as="geometry" />
        </mxCell>
        <mxCell id="20LNLVl6zcm7CszeMAKS-136" style="endArrow=block" edge="1" parent="1" source="20LNLVl6zcm7CszeMAKS-112" target="20LNLVl6zcm7CszeMAKS-121">
          <mxGeometry relative="1" as="geometry" />
        </mxCell>
        <mxCell id="20LNLVl6zcm7CszeMAKS-137" style="endArrow=block" edge="1" parent="1" source="20LNLVl6zcm7CszeMAKS-112" target="20LNLVl6zcm7CszeMAKS-123">
          <mxGeometry relative="1" as="geometry" />
        </mxCell>
        <mxCell id="20LNLVl6zcm7CszeMAKS-138" style="endArrow=block" edge="1" parent="1" source="20LNLVl6zcm7CszeMAKS-117" target="20LNLVl6zcm7CszeMAKS-121">
          <mxGeometry relative="1" as="geometry" />
        </mxCell>
        <mxCell id="20LNLVl6zcm7CszeMAKS-139" style="endArrow=block" edge="1" parent="1" source="20LNLVl6zcm7CszeMAKS-118" target="20LNLVl6zcm7CszeMAKS-121">
          <mxGeometry relative="1" as="geometry" />
        </mxCell>
        <mxCell id="20LNLVl6zcm7CszeMAKS-140" style="endArrow=block" edge="1" parent="1" source="20LNLVl6zcm7CszeMAKS-112" target="20LNLVl6zcm7CszeMAKS-122">
          <mxGeometry relative="1" as="geometry" />
        </mxCell>
        <mxCell id="20LNLVl6zcm7CszeMAKS-141" style="endArrow=block" edge="1" parent="1" source="20LNLVl6zcm7CszeMAKS-122" target="20LNLVl6zcm7CszeMAKS-124">
          <mxGeometry relative="1" as="geometry" />
        </mxCell>
        <mxCell id="20LNLVl6zcm7CszeMAKS-142" style="endArrow=block" edge="1" parent="1" source="20LNLVl6zcm7CszeMAKS-122" target="20LNLVl6zcm7CszeMAKS-125">
          <mxGeometry relative="1" as="geometry" />
        </mxCell>
        <mxCell id="20LNLVl6zcm7CszeMAKS-143" style="endArrow=block" edge="1" parent="1" source="20LNLVl6zcm7CszeMAKS-124" target="20LNLVl6zcm7CszeMAKS-127">
          <mxGeometry relative="1" as="geometry" />
        </mxCell>
        <mxCell id="20LNLVl6zcm7CszeMAKS-144" style="endArrow=block" edge="1" parent="1" source="20LNLVl6zcm7CszeMAKS-125" target="20LNLVl6zcm7CszeMAKS-127">
          <mxGeometry relative="1" as="geometry" />
        </mxCell>
        <mxCell id="20LNLVl6zcm7CszeMAKS-145" style="endArrow=block" edge="1" parent="1" source="20LNLVl6zcm7CszeMAKS-121" target="20LNLVl6zcm7CszeMAKS-129">
          <mxGeometry relative="1" as="geometry" />
        </mxCell>
        <mxCell id="20LNLVl6zcm7CszeMAKS-146" style="endArrow=block" edge="1" parent="1" source="20LNLVl6zcm7CszeMAKS-123" target="20LNLVl6zcm7CszeMAKS-128">
          <mxGeometry relative="1" as="geometry" />
        </mxCell>
        <mxCell id="20LNLVl6zcm7CszeMAKS-147" style="endArrow=block" edge="1" parent="1" source="20LNLVl6zcm7CszeMAKS-128" target="20LNLVl6zcm7CszeMAKS-130">
          <mxGeometry relative="1" as="geometry" />
        </mxCell>
        <mxCell id="20LNLVl6zcm7CszeMAKS-150" value="&lt;font style=&quot;font-size: 30px;&quot;&gt;Surowce&lt;/font&gt;" style="text;html=1;align=center;verticalAlign=middle;whiteSpace=wrap;rounded=0;" vertex="1" parent="1">
          <mxGeometry x="-850" y="-850" width="200" height="70" as="geometry" />
        </mxCell>
        <mxCell id="20LNLVl6zcm7CszeMAKS-151" value="&lt;span style=&quot;font-size: 30px;&quot;&gt;Kompozyty metaliczne&lt;/span&gt;" style="text;html=1;align=center;verticalAlign=middle;whiteSpace=wrap;rounded=0;" vertex="1" parent="1">
          <mxGeometry x="-280" y="-850" width="200" height="70" as="geometry" />
        </mxCell>
        <mxCell id="20LNLVl6zcm7CszeMAKS-152" value="Węgliel" style="shape=process" vertex="1" parent="1">
          <mxGeometry x="-830" y="-60" width="160" height="60" as="geometry" />
        </mxCell>
        <mxCell id="20LNLVl6zcm7CszeMAKS-153" value="Żelazo" style="shape=process" vertex="1" parent="1">
          <mxGeometry x="-830" y="50" width="160" height="60" as="geometry" />
        </mxCell>
        <mxCell id="20LNLVl6zcm7CszeMAKS-154" value="Cytron" style="shape=process" vertex="1" parent="1">
          <mxGeometry x="-840" y="180" width="160" height="60" as="geometry" />
        </mxCell>
      </root>
    </mxGraphModel>
  </diagram>
</mxfile>
